<?xml version="1.0" encoding="iso-8859-1"?>
<!-- Generator: Adobe Illustrator 19.0.0, SVG Export Plug-In . SVG Version: 6.00 Build 0)  -->
<svg version="1.1" id="Capa_1" xmlns="http://www.w3.org/2000/svg" xmlns:xlink="http://www.w3.org/1999/xlink" x="0px" y="0px"
	 viewBox="0 0 59 59" style="enable-background:new 0 0 59 59;" xml:space="preserve">
<path d="M0,0v59h59V0H0z M21.707,43.293c0.391,0.391,0.391,1.023,0,1.414C21.512,44.902,21.256,45,21,45s-0.512-0.098-0.707-0.293
	L5.586,30l14.707-14.707c0.391-0.391,1.023-0.391,1.414,0s0.391,1.023,0,1.414L8.414,30L21.707,43.293z M34.977,9.215l-9,41
	C25.874,50.682,25.46,51,25.001,51c-0.071,0-0.144-0.008-0.216-0.023c-0.539-0.118-0.88-0.651-0.762-1.191l9-41
	c0.118-0.539,0.654-0.88,1.191-0.762C34.754,8.142,35.095,8.675,34.977,9.215z M38.707,44.707C38.512,44.902,38.256,45,38,45
	s-0.512-0.098-0.707-0.293c-0.391-0.391-0.391-1.023,0-1.414L50.586,30L37.293,16.707c-0.391-0.391-0.391-1.023,0-1.414
	s1.023-0.391,1.414,0L53.414,30L38.707,44.707z"/>
<g>
</g>
<g>
</g>
<g>
</g>
<g>
</g>
<g>
</g>
<g>
</g>
<g>
</g>
<g>
</g>
<g>
</g>
<g>
</g>
<g>
</g>
<g>
</g>
<g>
</g>
<g>
</g>
<g>
</g>
</svg>
