<?xml version="1.0" encoding="iso-8859-1"?>
<!-- Generator: Adobe Illustrator 19.0.0, SVG Export Plug-In . SVG Version: 6.00 Build 0)  -->
<svg version="1.1" id="Layer_1" xmlns="http://www.w3.org/2000/svg" xmlns:xlink="http://www.w3.org/1999/xlink" x="0px" y="0px"
	 viewBox="0 0 280.903 280.903" style="enable-background:new 0 0 280.903 280.903;" xml:space="preserve">
<g>
	<path style="fill:#324D5B;" d="M52.943,233.648c0-51.63,39.379-102.385,87.509-102.385s87.509,50.755,87.509,102.385V249.4
		c0,17.502-14.001,31.503-31.503,31.503H84.446c-17.502,0-31.503-14.001-31.503-31.503
		C52.943,248.524,52.943,233.648,52.943,233.648z"/>
	<g>
		<path style="fill:#2B414D;" d="M210.458,276.527c10.501-5.251,17.502-15.752,17.502-28.003v-15.752
			c0-21.002-7.001-42.004-17.502-58.631V276.527z M175.455,280.027h17.502V153.14c-5.251-5.251-11.376-9.626-17.502-13.126V280.027z
			 M157.953,280.027V133.888c-5.251-1.75-11.376-2.625-17.502-2.625v148.765h17.502V280.027z M122.949,133.888
			c-6.126,1.75-12.251,4.375-17.502,7.001v139.139h17.502V133.888z M70.444,174.142v102.385c4.375,1.75,8.751,3.5,14.001,3.5h3.5
			V153.14C80.945,159.266,75.695,166.266,70.444,174.142z"/>
	</g>
	<path style="fill:#E19178;" d="M140.451,8.751c38.504,0,70.007,31.503,70.007,70.007s-31.503,70.007-70.007,70.007
		s-70.007-31.503-70.007-70.007S101.947,8.751,140.451,8.751z"/>
	<path style="fill:#533016;" d="M140.451,0c34.128,0,70.007,17.502,70.007,76.132c0,0-12.251-10.501-26.253-23.627
		c-20.127-20.127-27.128,0-43.754,0c-17.502,0-21.002-19.252-43.754,0C81.82,64.756,70.444,76.132,70.444,76.132
		C70.444,18.377,105.448,0,140.451,0z"/>
	<path style="fill:#89542D;" d="M166.704,70.007c-5.251,0-8.751,3.5-8.751,8.751s3.5,8.751,8.751,8.751s8.751-3.5,8.751-8.751
		S171.954,70.007,166.704,70.007z M122.949,78.758c0-5.251-3.5-8.751-8.751-8.751c-5.251,0-8.751,3.5-8.751,8.751
		s3.5,8.751,8.751,8.751C119.449,87.509,122.949,84.008,122.949,78.758z M163.203,105.01c-1.75,0-3.5,1.75-3.5,3.5
		c0,0.875-1.75,1.75-3.5,2.625c-1.75,1.75-14.001,2.625-15.752,2.625s-14.001,0-16.627-1.75c-1.75-0.875-2.625-2.625-2.625-2.625
		c0-2.625-1.75-3.5-3.5-3.5s-3.5,1.75-3.5,4.375c-0.875,6.126,8.751,12.251,26.253,12.251c17.502-0.875,26.253-5.251,26.253-13.126
		C166.704,107.636,164.954,105.01,163.203,105.01z"/>
</g>
<g>
</g>
<g>
</g>
<g>
</g>
<g>
</g>
<g>
</g>
<g>
</g>
<g>
</g>
<g>
</g>
<g>
</g>
<g>
</g>
<g>
</g>
<g>
</g>
<g>
</g>
<g>
</g>
<g>
</g>
</svg>
