<svg width="100%" height="100%" id="svg" viewBox="0 0 1440 400" xmlns="http://www.w3.org/2000/svg" class="transition duration-300 ease-in-out delay-150"><defs><linearGradient id="gradient" x1="2%" y1="36%" x2="98%" y2="64%"><stop offset="5%" stop-color="#9900ef"></stop><stop offset="95%" stop-color="#f78da7"></stop></linearGradient></defs><path d="M 0,400 C 0,400 0,133 0,133 C 73.57948717948719,136.04358974358973 147.15897435897438,139.0871794871795 222,143 C 296.8410256410256,146.9128205128205 372.94358974358965,151.6948717948718 467,159 C 561.0564102564103,166.3051282051282 673.0666666666667,176.13333333333333 753,167 C 832.9333333333333,157.86666666666667 880.7897435897435,129.77179487179484 950,124 C 1019.2102564102565,118.22820512820515 1109.774358974359,134.77948717948718 1195,140 C 1280.225641025641,145.22051282051282 1360.1128205128205,139.1102564102564 1440,133 C 1440,133 1440,400 1440,400 Z" stroke="none" stroke-width="0" fill="url(#gradient)" fill-opacity="0.53" class="transition-all duration-300 ease-in-out delay-150 path-0" transform="rotate(-180 720 200)"></path><defs><linearGradient id="gradient" x1="2%" y1="36%" x2="98%" y2="64%"><stop offset="5%" stop-color="#9900ef"></stop><stop offset="95%" stop-color="#f78da7"></stop></linearGradient></defs><path d="M 0,400 C 0,400 0,266 0,266 C 69.1974358974359,270.38461538461536 138.3948717948718,274.7692307692308 221,282 C 303.6051282051282,289.2307692307692 399.6179487179488,299.3076923076923 490,294 C 580.3820512820512,288.6923076923077 665.1333333333333,268 738,259 C 810.8666666666667,249.99999999999997 871.8487179487179,252.69230769230768 941,256 C 1010.1512820512821,259.3076923076923 1087.4717948717948,263.2307692307692 1172,265 C 1256.5282051282052,266.7692307692308 1348.2641025641026,266.38461538461536 1440,266 C 1440,266 1440,400 1440,400 Z" stroke="none" stroke-width="0" fill="url(#gradient)" fill-opacity="1" class="transition-all duration-300 ease-in-out delay-150 path-1" transform="rotate(-180 720 200)"></path></svg>